<svg width="24" height="25" viewBox="0 0 24 25" fill="none" xmlns="http://www.w3.org/2000/svg">
<g id="Frame" clip-path="url(#clip0_399_108)">
<g id="Group">
<path id="Vector" d="M15.311 15.811C14.4327 16.6893 13.2414 17.1827 11.9993 17.1827C10.7573 17.1827 9.56603 16.6893 8.68773 15.811C7.80944 14.9327 7.31602 13.7414 7.31602 12.4993C7.31602 11.2573 7.80944 10.066 8.68773 9.18773C9.56603 8.30944 10.7573 7.81602 11.9993 7.81602C13.2414 7.81602 14.4327 8.30944 15.311 9.18773C16.1893 10.066 16.6827 11.2573 16.6827 12.4993C16.6827 13.7414 16.1893 14.9327 15.311 15.811Z" stroke="black" stroke-width="1.3" stroke-linecap="round" stroke-linejoin="round"/>
<path id="Vector_2" d="M0.65 17.8333V7.16667C0.65 5.57095 1.2839 4.04058 2.41224 2.91224C3.54058 1.7839 5.07095 1.15 6.66667 1.15H17.3333C18.9291 1.15 20.4594 1.7839 21.5878 2.91224C22.7161 4.04058 23.35 5.57095 23.35 7.16667V17.8333C23.35 19.4291 22.7161 20.9594 21.5878 22.0878C20.4594 23.2161 18.9291 23.85 17.3333 23.85H6.66667C5.07095 23.85 3.54058 23.2161 2.41224 22.0878C1.2839 20.9594 0.65 19.4291 0.65 17.8333Z" stroke="black" stroke-width="1.3"/>
<path id="Vector_3" d="M18.333 6.1817L18.3473 6.16602" stroke="black" stroke-width="1.8" stroke-linecap="round" stroke-linejoin="round"/>
</g>
</g>
<defs>
<clipPath id="clip0_399_108">
<rect width="24" height="24" fill="white" transform="translate(0 0.5)"/>
</clipPath>
</defs>
</svg>
