<svg width="113" height="33" viewBox="0 0 113 33" fill="none" xmlns="http://www.w3.org/2000/svg">
<path d="M25.1431 16.5003C25.1431 21.5497 21.0497 25.6431 16.0003 25.6431C10.9508 25.6431 6.85742 21.5497 6.85742 16.5003C6.85742 11.4508 10.9508 7.35742 16.0003 7.35742C21.0497 7.35742 25.1431 11.4508 25.1431 16.5003Z" fill="black"/>
<path d="M14.6296 1.07143C15.0695 0.309524 16.1692 0.309524 16.6091 1.07143L18.2586 3.92857C18.6985 4.69047 18.1487 5.64285 17.2689 5.64285H13.9698C13.09 5.64285 12.5401 4.69047 12.98 3.92857L14.6296 1.07143Z" fill="black"/>
<path d="M25.8289 4.89089C26.6787 4.66319 27.4563 5.44081 27.2286 6.2906L26.3747 9.47733C26.147 10.3271 25.0847 10.6117 24.4627 9.98966L22.1298 7.65681C21.5077 7.03472 21.7924 5.97248 22.6421 5.74478L25.8289 4.89089Z" fill="black"/>
<path d="M4.00808 6.2893C3.78038 5.4395 4.55799 4.66189 5.40779 4.88959L8.59451 5.74347C9.4443 5.97117 9.72893 7.03341 9.10684 7.65551L6.77399 9.98835C6.1519 10.6104 5.08966 10.3258 4.86196 9.47602L4.00808 6.2893Z" fill="black"/>
<path d="M0.571428 17.4896C-0.190476 17.0497 -0.190476 15.95 0.571427 15.5101L3.42856 13.8605C4.19047 13.4206 5.14285 13.9705 5.14285 14.8502L5.14285 18.1494C5.14285 19.0292 4.19047 19.579 3.42856 19.1391L0.571428 17.4896Z" fill="black"/>
<path d="M14.6296 31.9279C15.0695 32.6898 16.1692 32.6898 16.6091 31.9279L18.2586 29.0707C18.6985 28.3088 18.1487 27.3564 17.2689 27.3564H13.9698C13.09 27.3564 12.5401 28.3088 12.98 29.0707L14.6296 31.9279Z" fill="black"/>
<path d="M4.00923 26.7096C3.78153 27.5593 4.55915 28.337 5.40894 28.1093L8.59566 27.2554C9.44545 27.0277 9.73008 25.9654 9.10799 25.3433L6.77515 23.0105C6.15306 22.3884 5.09081 22.673 4.86311 23.5228L4.00923 26.7096Z" fill="black"/>
<path d="M25.8287 28.1099C26.6785 28.3376 27.4561 27.56 27.2284 26.7102L26.3745 23.5235C26.1468 22.6737 25.0846 22.3891 24.4625 23.0111L22.1296 25.344C21.5075 25.9661 21.7922 27.0283 22.642 27.256L25.8287 28.1099Z" fill="black"/>
<path d="M31.4279 17.4896C32.1898 17.0497 32.1898 15.95 31.4279 15.5101L28.5707 13.8605C27.8088 13.4206 26.8564 13.9705 26.8564 14.8502L26.8564 18.1494C26.8564 19.0292 27.8088 19.579 28.5707 19.1391L31.4279 17.4896Z" fill="black"/>
<path d="M52.8449 8.51662C57.5319 8.51662 59.8255 11.4751 59.8255 15.6302V25.9011C59.8255 26.0116 59.7359 26.1011 59.6255 26.1011H57.5324C57.4219 26.1011 57.3324 26.0116 57.3324 25.9011V24.124C57.3324 23.9216 57.0481 23.8358 56.9209 23.9932C55.5887 25.6402 53.3147 26.5 51.2825 26.5C47.6593 26.5 45 24.4058 45 21.0152C45 17.5914 48.0582 15.2978 51.7479 15.2978C53.5178 15.2978 55.3779 15.6584 57.0709 16.1796C57.2005 16.2195 57.3324 16.1231 57.3324 15.9876V15.6302C57.3324 13.3033 56.4017 10.644 52.6787 10.644C51.0166 10.644 49.3546 11.3509 47.8403 12.1145C47.7406 12.1648 47.6189 12.1244 47.5697 12.0242L46.7497 10.357C46.7012 10.2583 46.7417 10.1387 46.8405 10.0905C49.2217 8.92802 51.2232 8.51662 52.8449 8.51662ZM51.7147 24.3061C53.9669 24.3061 56.6482 23.151 57.3252 20.7422C57.33 20.725 57.3324 20.707 57.3324 20.6892V18.2422C57.3324 18.1523 57.2724 18.0733 57.1856 18.0501C55.66 17.6415 53.9502 17.392 52.1468 17.392C49.5873 17.392 47.4266 18.8546 47.4266 20.9155C47.4266 23.0429 49.2881 24.3061 51.7147 24.3061Z" fill="black"/>
<path d="M74.9268 9.11551C74.9268 9.00505 75.0163 8.91551 75.1268 8.91551H77.2198C77.3303 8.91551 77.4198 9.00505 77.4198 9.11551V25.9011C77.4198 26.0116 77.3303 26.1011 77.2198 26.1011H75.1268C75.0163 26.1011 74.9268 26.0116 74.9268 25.9011V24.1597C74.9268 23.9525 74.6255 23.8677 74.5 24.0326C73.3786 25.5066 71.4291 26.5 69.2758 26.5C65.4531 26.5 62.827 23.8075 62.827 19.8518V9.11551C62.827 9.00505 62.9166 8.91551 63.027 8.91551H65.1201C65.2306 8.91551 65.3201 9.00505 65.3201 9.11551V19.5194C65.3201 22.3449 67.0819 24.2728 69.6082 24.2728C72.5334 24.2728 74.9268 22.2784 74.9268 19.8518V9.11551Z" fill="black"/>
<path d="M83.3666 11.3397C83.3666 11.5552 83.6974 11.6361 83.8164 11.4563C84.9909 9.68196 87.1422 8.57147 89.8144 8.51859C89.9248 8.51641 90.0148 8.60616 90.0148 8.71662V10.5438C90.0148 10.6542 89.9244 10.7435 89.814 10.7459C86.031 10.8269 83.3666 13.1952 83.3666 16.4945V25.9011C83.3666 26.0116 83.277 26.1011 83.1666 26.1011H81.0735C80.9631 26.1011 80.8735 26.0116 80.8735 25.9011V9.11551C80.8735 9.00505 80.9631 8.91551 81.0735 8.91551H83.1666C83.277 8.91551 83.3666 9.00505 83.3666 9.11551V11.3397Z" fill="black"/>
<path d="M93.8476 5.79086C92.9169 5.79086 92.1856 5.02632 92.1856 4.12881C92.1856 3.26454 92.9169 2.5 93.8476 2.5C94.7451 2.5 95.4764 3.26454 95.4764 4.12881C95.4764 5.02632 94.7451 5.79086 93.8476 5.79086ZM92.7845 26.1011C92.674 26.1011 92.5845 26.0116 92.5845 25.9011V9.11551C92.5845 9.00505 92.674 8.91551 92.7845 8.91551H94.8775C94.988 8.91551 95.0775 9.00505 95.0775 9.11551V25.9011C95.0775 26.0116 94.988 26.1011 94.8775 26.1011H92.7845Z" fill="black"/>
<path d="M105.597 8.51662C110.284 8.51662 112.577 11.4751 112.577 15.6302V25.9011C112.577 26.0116 112.488 26.1011 112.377 26.1011H110.284C110.174 26.1011 110.084 26.0116 110.084 25.9011V24.124C110.084 23.9216 109.8 23.8358 109.673 23.9932C108.341 25.6402 106.067 26.5 104.034 26.5C100.411 26.5 97.7519 24.4058 97.7519 21.0152C97.7519 17.5914 100.81 15.2978 104.5 15.2978C106.27 15.2978 108.13 15.6584 109.823 16.1796C109.952 16.2195 110.084 16.1231 110.084 15.9876V15.6302C110.084 13.3033 109.154 10.644 105.431 10.644C103.769 10.644 102.106 11.3509 100.592 12.1145C100.492 12.1648 100.371 12.1244 100.322 12.0242L99.5016 10.357C99.4531 10.2583 99.4936 10.1387 99.5924 10.0905C101.974 8.92802 103.975 8.51662 105.597 8.51662ZM104.467 24.3061C106.719 24.3061 109.4 23.151 110.077 20.7422C110.082 20.725 110.084 20.707 110.084 20.6892V18.2422C110.084 18.1523 110.024 18.0733 109.937 18.0501C108.412 17.6415 106.702 17.392 104.899 17.392C102.339 17.392 100.178 18.8546 100.178 20.9155C100.178 23.0429 102.04 24.3061 104.467 24.3061Z" fill="black"/>
</svg>
