<?xml version="1.0" encoding="UTF-8"?>
<svg width="64" height="64" viewBox="0 0 42 42" fill="none" xmlns="http://www.w3.org/2000/svg">
<rect width="42" height="42" rx="8" fill="#000000"/>
<path d="M33.0004 21C33.0004 27.6274 27.6278 33 21.0004 33C14.3729 33 9.00037 27.6274 9.00037 21C9.00037 14.3726 14.3729 9 21.0004 9C27.6278 9 33.0004 14.3726 33.0004 21Z" fill="white"/>
<path d="M19.2013 0.750001C19.7787 -0.25 21.2221 -0.250001 21.7994 0.750001L23.9645 4.5C24.5418 5.5 23.8201 6.75001 22.6654 6.75001H18.3353C17.1806 6.75001 16.4589 5.5 17.0363 4.5L19.2013 0.750001Z" fill="white"/>
<path d="M33.9004 5.76256C35.0157 5.46371 36.0364 6.48433 35.7375 7.59968L34.6168 11.7823C34.3179 12.8976 32.9237 13.2712 32.1072 12.4547L29.0454 9.39284C28.2289 8.57634 28.6025 7.18214 29.7178 6.88328L33.9004 5.76256Z" fill="white"/>
<path d="M5.26189 7.59985C4.96303 6.4845 5.98365 5.46388 7.09901 5.76273L11.2816 6.88345C12.3969 7.18231 12.7705 8.57651 11.954 9.39301L8.89216 12.4549C8.07566 13.2714 6.68147 12.8978 6.38261 11.7824L5.26189 7.59985Z" fill="white"/>
<path d="M0.75 22.2987C-0.25 21.7214 -0.25 20.278 0.749999 19.7006L4.5 17.5356C5.5 16.9582 6.75 17.6799 6.75 18.8346L6.75 23.1648C6.75 24.3195 5.5 25.0411 4.5 24.4638L0.75 22.2987Z" fill="white"/>
<path d="M19.2013 41.25C19.7787 42.25 21.2221 42.25 21.7994 41.25L23.9645 37.5C24.5418 36.5 23.8201 35.25 22.6654 35.25H18.3353C17.1806 35.25 16.4589 36.5 17.0363 37.5L19.2013 41.25Z" fill="white"/>
<path d="M5.26211 34.4007C4.96326 35.516 5.98388 36.5366 7.09923 36.2378L11.2818 35.1171C12.3972 34.8182 12.7707 33.424 11.9542 32.6075L8.89238 29.5456C8.07589 28.7291 6.68169 29.1027 6.38283 30.2181L5.26211 34.4007Z" fill="white"/>
<path d="M33.9002 36.2379C35.0155 36.5368 36.0361 35.5162 35.7373 34.4008L34.6166 30.2182C34.3177 29.1029 32.9235 28.7293 32.107 29.5458L29.0452 32.6077C28.2287 33.4242 28.6022 34.8184 29.7176 35.1172L33.9002 36.2379Z" fill="white"/>
<path d="M41.2504 22.2987C42.2504 21.7214 42.2504 20.278 41.2504 19.7006L37.5004 17.5356C36.5004 16.9582 35.2504 17.6799 35.2504 18.8346L35.2504 23.1648C35.2504 24.3195 36.5004 25.0411 37.5004 24.4638L41.2504 22.2987Z" fill="white"/>
</svg> 