<svg width="32" height="32" viewBox="0 0 32 32" fill="none" xmlns="http://www.w3.org/2000/svg">
<rect width="32" height="32" fill="white"/>
<path d="M19.7139 15.9995C19.7139 18.0509 18.051 19.7138 15.9998 19.7138C13.9486 19.7138 12.2856 18.0509 12.2856 15.9995C12.2856 13.948 13.9486 12.2852 15.9998 12.2852C18.051 12.2852 19.7139 13.948 19.7139 15.9995Z" fill="black" stroke="black" stroke-width="4"/>
<path d="M15.1429 6.35715C15.4178 5.88095 16.1051 5.88095 16.38 6.35715L17.411 8.14289C17.6859 8.61909 17.3423 9.21434 16.7924 9.21434H14.7305C14.1806 9.21434 13.837 8.61909 14.1119 8.14289L15.1429 6.35715Z" fill="black"/>
<path d="M22.1425 8.74384C22.6737 8.60152 23.1597 9.08754 23.0174 9.61867L22.4837 11.6104C22.3414 12.1415 21.6775 12.3194 21.2887 11.9306L19.8307 10.4726C19.4419 10.0838 19.6198 9.41984 20.1509 9.27752L22.1425 8.74384Z" fill="black"/>
<path d="M8.50601 9.61867C8.3637 9.08754 8.8497 8.60152 9.38082 8.74384L11.3725 9.27752C11.9036 9.41984 12.0815 10.0837 11.6927 10.4726L10.2347 11.9306C9.84589 12.3194 9.18199 12.1415 9.03968 11.6104L8.50601 9.61867Z" fill="black"/>
<path d="M6.35714 16.6181C5.88095 16.3432 5.88095 15.6558 6.35714 15.3809L8.14283 14.3499C8.61901 14.075 9.21424 14.4186 9.21424 14.9685L9.21424 17.0305C9.21424 17.5804 8.61901 17.924 8.14283 17.6491L6.35714 16.6181Z" fill="black"/>
<path d="M15.1429 25.6426C15.4178 26.1188 16.1051 26.1188 16.38 25.6426L17.411 23.8568C17.6859 23.3806 17.3423 22.7854 16.7924 22.7854H14.7305C14.1806 22.7854 13.837 23.3806 14.1119 23.8568L15.1429 25.6426Z" fill="black"/>
<path d="M8.50518 22.3808C8.36286 22.9119 8.84887 23.3979 9.37998 23.2556L11.3717 22.7219C11.9028 22.5796 12.0807 21.9157 11.6919 21.5269L10.2339 20.0688C9.84505 19.68 9.18116 19.8579 9.03884 20.389L8.50518 22.3808Z" fill="black"/>
<path d="M22.1429 23.2558C22.674 23.3982 23.16 22.9121 23.0177 22.381L22.484 20.3893C22.3417 19.8581 21.6778 19.6803 21.289 20.0691L19.831 21.5271C19.4422 21.9159 19.6201 22.5798 20.1512 22.7222L22.1429 23.2558Z" fill="black"/>
<path d="M25.6427 16.6181C26.1189 16.3432 26.1189 15.6558 25.6427 15.3809L23.8571 14.3499C23.3809 14.075 22.7856 14.4186 22.7856 14.9685L22.7856 17.0305C22.7856 17.5804 23.3809 17.924 23.8571 17.6491L25.6427 16.6181Z" fill="black"/>
</svg>
