<svg width="148" height="42" viewBox="0 0 148 42" fill="none" xmlns="http://www.w3.org/2000/svg">
<path d="M33.0004 21C33.0004 27.6274 27.6278 33 21.0004 33C14.3729 33 9.00037 27.6274 9.00037 21C9.00037 14.3726 14.3729 9 21.0004 9C27.6278 9 33.0004 14.3726 33.0004 21Z" fill="white"/>
<path d="M19.2013 0.750001C19.7787 -0.25 21.2221 -0.250001 21.7994 0.750001L23.9645 4.5C24.5418 5.5 23.8201 6.75001 22.6654 6.75001H18.3353C17.1806 6.75001 16.4589 5.5 17.0363 4.5L19.2013 0.750001Z" fill="white"/>
<path d="M33.9004 5.76256C35.0157 5.46371 36.0364 6.48433 35.7375 7.59968L34.6168 11.7823C34.3179 12.8976 32.9237 13.2712 32.1072 12.4547L29.0454 9.39284C28.2289 8.57634 28.6025 7.18214 29.7178 6.88328L33.9004 5.76256Z" fill="white"/>
<path d="M5.26189 7.59985C4.96303 6.4845 5.98365 5.46388 7.09901 5.76273L11.2816 6.88345C12.3969 7.18231 12.7705 8.57651 11.954 9.39301L8.89216 12.4549C8.07566 13.2714 6.68147 12.8978 6.38261 11.7824L5.26189 7.59985Z" fill="white"/>
<path d="M0.75 22.2987C-0.25 21.7214 -0.25 20.278 0.749999 19.7006L4.5 17.5356C5.5 16.9582 6.75 17.6799 6.75 18.8346L6.75 23.1648C6.75 24.3195 5.5 25.0411 4.5 24.4638L0.75 22.2987Z" fill="white"/>
<path d="M19.2013 41.25C19.7787 42.25 21.2221 42.25 21.7994 41.25L23.9645 37.5C24.5418 36.5 23.8201 35.25 22.6654 35.25H18.3353C17.1806 35.25 16.4589 36.5 17.0363 37.5L19.2013 41.25Z" fill="white"/>
<path d="M5.26211 34.4007C4.96326 35.516 5.98388 36.5366 7.09923 36.2378L11.2818 35.1171C12.3972 34.8182 12.7707 33.424 11.9542 32.6075L8.89238 29.5456C8.07589 28.7291 6.68169 29.1027 6.38283 30.2181L5.26211 34.4007Z" fill="white"/>
<path d="M33.9002 36.2379C35.0155 36.5368 36.0361 35.5162 35.7373 34.4008L34.6166 30.2182C34.3177 29.1029 32.9235 28.7293 32.107 29.5458L29.0452 32.6077C28.2287 33.4242 28.6022 34.8184 29.7176 35.1172L33.9002 36.2379Z" fill="white"/>
<path d="M41.2504 22.2987C42.2504 21.7214 42.2504 20.278 41.2504 19.7006L37.5004 17.5356C36.5004 16.9582 35.2504 17.6799 35.2504 18.8346L35.2504 23.1648C35.2504 24.3195 36.5004 25.0411 37.5004 24.4638L41.2504 22.2987Z" fill="white"/>
<path d="M69.3589 10.5218C75.5106 10.5218 78.521 14.4048 78.521 19.8584V33.4015C78.521 33.5119 78.4314 33.6015 78.321 33.6015H75.4488C75.3384 33.6015 75.2488 33.5119 75.2488 33.4015V30.7829C75.2488 30.5806 74.9688 30.4976 74.8465 30.6588C73.1203 32.9353 70.047 34.125 67.3084 34.125C62.5528 34.125 59.0625 31.3764 59.0625 26.9263C59.0625 22.4325 63.0764 19.4221 67.9192 19.4221C70.2707 19.4221 72.7435 19.9071 74.9874 20.6048C75.1169 20.645 75.2488 20.5487 75.2488 20.4132V19.8584C75.2488 16.8044 74.0272 13.3141 69.1408 13.3141C66.9386 13.3141 64.7364 14.2595 62.7338 15.2726C62.6342 15.323 62.5125 15.2826 62.4632 15.1824L61.3316 12.8816C61.2831 12.7829 61.3239 12.6632 61.4226 12.6148C64.5724 11.0682 67.2178 10.5218 69.3589 10.5218ZM67.8755 31.2455C70.8342 31.2455 74.3569 29.7269 75.2416 26.5597C75.2464 26.5425 75.2488 26.5246 75.2488 26.5067V23.2391C75.2488 23.1492 75.1889 23.0703 75.1021 23.0469C73.0882 22.5034 70.8278 22.1707 68.4427 22.1707C65.0833 22.1707 62.2474 24.0904 62.2474 26.7954C62.2474 29.5876 64.6906 31.2455 67.8755 31.2455Z" fill="white"/>
<path d="M98.3414 11.2454C98.3414 11.1349 98.431 11.0454 98.5414 11.0454H101.414C101.524 11.0454 101.614 11.1349 101.614 11.2454V33.4015C101.614 33.5119 101.524 33.6015 101.414 33.6015H98.5414C98.431 33.6015 98.3414 33.5119 98.3414 33.4015V30.8083C98.3414 30.6011 98.046 30.5197 97.9263 30.6889C96.4816 32.7318 93.8459 34.125 90.9245 34.125C85.9072 34.125 82.4605 30.5911 82.4605 25.3993V11.2454C82.4605 11.1349 82.5501 11.0454 82.6605 11.0454H85.5327C85.6431 11.0454 85.7327 11.1349 85.7327 11.2454V24.963C85.7327 28.6714 88.045 31.2019 91.3608 31.2019C95.2001 31.2019 98.3414 28.5842 98.3414 25.3993V11.2454Z" fill="white"/>
<path d="M109.419 14.5187C109.419 14.7343 109.741 14.8106 109.853 14.6264C111.364 12.1403 114.285 10.5784 117.944 10.5233C118.054 10.5217 118.144 10.6114 118.144 10.7218V13.245C118.144 13.3554 118.054 13.4448 117.943 13.4466C112.945 13.528 109.419 16.6443 109.419 20.9928V33.4015C109.419 33.5119 109.329 33.6015 109.219 33.6015H106.347C106.236 33.6015 106.147 33.5119 106.147 33.4015V11.2454C106.147 11.1349 106.236 11.0454 106.347 11.0454H109.219C109.329 11.0454 109.419 11.1349 109.419 11.2454V14.5187Z" fill="white"/>
<path d="M123.175 6.94426C121.954 6.94426 120.994 5.94079 120.994 4.76282C120.994 3.62846 121.954 2.625 123.175 2.625C124.353 2.625 125.313 3.62846 125.313 4.76282C125.313 5.94079 124.353 6.94426 123.175 6.94426ZM121.717 33.6015C121.607 33.6015 121.517 33.5119 121.517 33.4015V11.2454C121.517 11.1349 121.607 11.0454 121.717 11.0454H124.589C124.7 11.0454 124.789 11.1349 124.789 11.2454V33.4015C124.789 33.5119 124.7 33.6015 124.589 33.6015H121.717Z" fill="white"/>
<path d="M138.596 10.5218C144.748 10.5218 147.758 14.4048 147.758 19.8584V33.4015C147.758 33.5119 147.668 33.6015 147.558 33.6015H144.686C144.575 33.6015 144.486 33.5119 144.486 33.4015V30.7829C144.486 30.5806 144.206 30.4976 144.084 30.6588C142.357 32.9353 139.284 34.125 136.545 34.125C131.79 34.125 128.299 31.3764 128.299 26.9263C128.299 22.4325 132.313 19.4221 137.156 19.4221C139.508 19.4221 141.98 19.9071 144.224 20.6048C144.354 20.645 144.486 20.5487 144.486 20.4132V19.8584C144.486 16.8044 143.264 13.3141 138.378 13.3141C136.176 13.3141 133.973 14.2595 131.971 15.2726C131.871 15.323 131.749 15.2826 131.7 15.1824L130.569 12.8816C130.52 12.7829 130.561 12.6632 130.66 12.6148C133.809 11.0682 136.455 10.5218 138.596 10.5218ZM137.112 31.2455C140.071 31.2455 143.594 29.7269 144.479 26.5597C144.483 26.5425 144.486 26.5246 144.486 26.5067V23.2391C144.486 23.1492 144.426 23.0703 144.339 23.0469C142.325 22.5034 140.065 22.1707 137.68 22.1707C134.32 22.1707 131.484 24.0904 131.484 26.7954C131.484 29.5876 133.928 31.2455 137.112 31.2455Z" fill="white"/>
</svg>
